# Blender 5.2.2 LTS
# www.blender.org
mtllib roadu.mtl
o Plane.001
v -6.778352 0.000000 3.240964
v -4.778352 0.000000 3.240964
v -6.778352 0.000000 1.907736
v -4.778352 0.000000 1.907736
v -6.778352 0.308924 3.240964
v -4.778352 0.308924 3.240964
v -6.778352 0.308924 2.022058
v -6.778352 0.194601 1.907736
v -4.778352 0.194601 1.907736
v -4.778352 0.308924 2.022058
v -6.778352 0.000000 3.635387
v -4.778352 0.000000 3.635387
v -6.778352 0.308924 3.635387
v -4.778352 0.308924 3.635387
v -8.464453 0.000000 1.907736
v -8.464453 0.000000 3.240964
v -8.464453 0.308924 3.240964
v -8.464453 0.194601 1.907736
v -8.464453 0.308924 2.022058
v -8.464453 0.308924 3.635387
v -8.464453 0.000000 3.635387
v -8.572950 0.000000 1.907736
v -8.572950 0.000000 3.240964
v -8.572950 0.308924 3.240964
v -8.572950 0.194601 1.907736
v -8.572950 0.308924 2.022058
v -8.572950 0.308924 3.635387
v -8.572950 0.000000 3.635387
v -8.582458 -0.011754 1.909001
v -8.582458 -0.011754 3.242229
v -8.582458 0.297169 3.242229
v -8.582458 0.182847 1.909001
v -8.582458 0.297169 2.023324
v -8.582458 0.297169 3.636652
v -8.582458 -0.011754 3.636652
v -8.593069 0.000000 1.915590
v -4.761888 0.000000 1.915590
v -8.593069 -0.000000 -1.915591
v -4.761888 -0.000000 -1.915591
v -4.778352 -0.000000 -3.244072
v -6.778352 -0.000000 -3.244073
v -4.778352 -0.000000 -1.910844
v -6.778352 -0.000000 -1.910845
v -4.778352 0.308924 -3.244072
v -6.778352 0.308924 -3.244073
v -4.778352 0.308924 -2.025166
v -4.778352 0.194601 -1.910844
v -6.778352 0.194601 -1.910845
v -6.778352 0.308924 -2.025167
v -4.778352 -0.000000 -3.638495
v -6.778352 -0.000000 -3.638496
v -4.778352 0.308924 -3.638495
v -6.778352 0.308924 -3.638496
v -8.464453 -0.000000 -3.244073
v -8.464454 -0.000000 -1.910845
v -8.464453 0.308924 -3.244073
v -8.464454 0.308924 -2.025167
v -8.464454 0.194601 -1.910845
v -8.464453 -0.000000 -3.638496
v -8.464453 0.308924 -3.638496
v -8.572950 -0.000000 -3.244073
v -8.572950 -0.000000 -1.910845
v -8.572950 0.308924 -3.244073
v -8.572950 0.308924 -2.025167
v -8.572950 0.194601 -1.910845
v -8.572950 -0.000000 -3.638496
v -8.572950 0.308924 -3.638496
v -8.582458 -0.011754 -3.242808
v -8.582458 -0.011754 -1.909579
v -8.582458 0.297169 -3.242808
v -8.582458 0.297169 -2.023901
v -8.582458 0.182847 -1.909579
v -8.582458 -0.011754 -3.637230
v -8.582458 0.297169 -3.637230
v -2.947171 0.000000 3.240964
v -0.947171 0.000000 3.240964
v -2.947171 0.000000 1.907736
v -0.947171 0.000000 1.907736
v -2.947171 0.308924 3.240964
v -0.947171 0.308924 3.240964
v -2.947171 0.308924 2.022058
v -2.947171 0.194601 1.907736
v -0.947171 0.194601 1.907736
v -0.947171 0.308924 2.022058
v -2.947171 0.000000 3.635387
v -0.947171 0.000000 3.635387
v -2.947171 0.308924 3.635387
v -0.947171 0.308924 3.635387
v -4.633272 0.000000 1.907736
v -4.633272 0.000000 3.240964
v -4.633272 0.308924 3.240964
v -4.633272 0.194601 1.907736
v -4.633272 0.308924 2.022058
v -4.633272 0.308924 3.635387
v -4.633272 0.000000 3.635387
v -4.741770 0.000000 1.907736
v -4.741770 0.000000 3.240964
v -4.741770 0.308924 3.240964
v -4.741770 0.194601 1.907736
v -4.741770 0.308924 2.022058
v -4.741770 0.308924 3.635387
v -4.741770 0.000000 3.635387
v -4.751278 -0.011754 1.909001
v -4.751278 -0.011754 3.242229
v -4.751278 0.297169 3.242229
v -4.751278 0.182847 1.909001
v -4.751278 0.297169 2.023324
v -4.751278 0.297169 3.636652
v -4.751278 -0.011754 3.636652
v -4.761888 0.000000 1.915590
v -0.930707 0.000000 1.915590
v -4.761888 -0.000000 -1.915591
v -0.930707 -0.000000 -1.915591
v -0.947171 -0.000000 -3.244072
v -2.947171 -0.000000 -3.244073
v -0.947171 -0.000000 -1.910844
v -2.947171 -0.000000 -1.910845
v -0.947171 0.308924 -3.244072
v -2.947171 0.308924 -3.244073
v -0.947171 0.308924 -2.025166
v -0.947171 0.194601 -1.910844
v -2.947171 0.194601 -1.910845
v -2.947171 0.308924 -2.025167
v -0.947171 -0.000000 -3.638495
v -2.947171 -0.000000 -3.638496
v -0.947171 0.308924 -3.638495
v -2.947171 0.308924 -3.638496
v -4.633272 -0.000000 -3.244073
v -4.633273 -0.000000 -1.910845
v -4.633272 0.308924 -3.244073
v -4.633273 0.308924 -2.025167
v -4.633273 0.194601 -1.910845
v -4.633272 -0.000000 -3.638496
v -4.633272 0.308924 -3.638496
v -4.741770 -0.000000 -3.244073
v -4.741770 -0.000000 -1.910845
v -4.741770 0.308924 -3.244073
v -4.741770 0.308924 -2.025167
v -4.741770 0.194601 -1.910845
v -4.741769 -0.000000 -3.638496
v -4.741769 0.308924 -3.638496
v -4.751278 -0.011754 -3.242808
v -4.751278 -0.011754 -1.909579
v -4.751278 0.297169 -3.242808
v -4.751278 0.297169 -2.023901
v -4.751278 0.182847 -1.909579
v -4.751278 -0.011754 -3.637230
v -4.751278 0.297169 -3.637230
v 0.884010 0.000000 3.240964
v 2.884009 0.000000 3.240964
v 0.884010 0.000000 1.907736
v 2.884009 0.000000 1.907736
v 0.884010 0.308924 3.240964
v 2.884009 0.308924 3.240964
v 0.884010 0.308924 2.022058
v 0.884010 0.194601 1.907736
v 2.884009 0.194601 1.907736
v 2.884009 0.308924 2.022058
v 0.884010 0.000000 3.635387
v 2.884009 0.000000 3.635387
v 0.884010 0.308924 3.635387
v 2.884009 0.308924 3.635387
v -0.802092 0.000000 1.907736
v -0.802092 0.000000 3.240964
v -0.802092 0.308924 3.240964
v -0.802092 0.194601 1.907736
v -0.802092 0.308924 2.022058
v -0.802092 0.308924 3.635387
v -0.802092 0.000000 3.635387
v -0.910589 0.000000 1.907736
v -0.910589 0.000000 3.240964
v -0.910589 0.308924 3.240964
v -0.910589 0.194601 1.907736
v -0.910589 0.308924 2.022058
v -0.910589 0.308924 3.635387
v -0.910589 0.000000 3.635387
v -0.920097 -0.011754 1.909001
v -0.920097 -0.011754 3.242229
v -0.920097 0.297169 3.242229
v -0.920097 0.182847 1.909001
v -0.920097 0.297169 2.023324
v -0.920097 0.297169 3.636652
v -0.920097 -0.011754 3.636652
v -0.930707 0.000000 1.915590
v 2.900474 0.000000 1.915590
v -0.930707 -0.000000 -1.915591
v 2.900474 -0.000000 -1.915591
v 2.884010 -0.000000 -3.244072
v 0.884010 -0.000000 -3.244073
v 2.884009 -0.000000 -1.910844
v 0.884009 -0.000000 -1.910845
v 2.884010 0.308924 -3.244072
v 0.884010 0.308924 -3.244073
v 2.884009 0.308924 -2.025166
v 2.884009 0.194601 -1.910844
v 0.884009 0.194601 -1.910845
v 0.884009 0.308924 -2.025167
v 2.884010 -0.000000 -3.638495
v 0.884010 -0.000000 -3.638496
v 2.884010 0.308924 -3.638495
v 0.884010 0.308924 -3.638496
v -0.802092 -0.000000 -3.244073
v -0.802092 -0.000000 -1.910845
v -0.802092 0.308924 -3.244073
v -0.802092 0.308924 -2.025167
v -0.802092 0.194601 -1.910845
v -0.802092 -0.000000 -3.638496
v -0.802092 0.308924 -3.638496
v -0.910589 -0.000000 -3.244073
v -0.910589 -0.000000 -1.910845
v -0.910589 0.308924 -3.244073
v -0.910589 0.308924 -2.025167
v -0.910589 0.194601 -1.910845
v -0.910588 -0.000000 -3.638496
v -0.910588 0.308924 -3.638496
v -0.920097 -0.011754 -3.242808
v -0.920097 -0.011754 -1.909579
v -0.920097 0.297169 -3.242808
v -0.920097 0.297169 -2.023901
v -0.920097 0.182847 -1.909579
v -0.920097 -0.011754 -3.637230
v -0.920097 0.297169 -3.637230
v 4.715191 0.000000 3.240964
v 6.715191 0.000000 3.240964
v 4.715191 0.000000 1.907736
v 6.715191 0.000000 1.907736
v 4.715191 0.308924 3.240964
v 6.715191 0.308924 3.240964
v 4.715191 0.308924 2.022058
v 4.715191 0.194601 1.907736
v 6.715191 0.194601 1.907736
v 6.715191 0.308924 2.022058
v 4.715191 0.000000 3.635387
v 6.715191 0.000000 3.635387
v 4.715191 0.308924 3.635387
v 6.715191 0.308924 3.635387
v 3.029090 0.000000 1.907736
v 3.029090 0.000000 3.240964
v 3.029090 0.308924 3.240964
v 3.029090 0.194601 1.907736
v 3.029090 0.308924 2.022058
v 3.029090 0.308924 3.635387
v 3.029090 0.000000 3.635387
v 2.920592 0.000000 1.907736
v 2.920592 0.000000 3.240964
v 2.920592 0.308924 3.240964
v 2.920592 0.194601 1.907736
v 2.920592 0.308924 2.022058
v 2.920592 0.308924 3.635387
v 2.920592 0.000000 3.635387
v 2.911084 -0.011754 1.909001
v 2.911084 -0.011754 3.242229
v 2.911084 0.297169 3.242229
v 2.911084 0.182847 1.909001
v 2.911084 0.297169 2.023324
v 2.911084 0.297169 3.636652
v 2.911084 -0.011754 3.636652
v 2.900474 0.000000 1.915590
v 6.731655 0.000000 1.915590
v 2.900474 -0.000000 -1.915591
v 6.731655 -0.000000 -1.915591
v 6.715191 -0.000000 -3.244072
v 4.715191 -0.000000 -3.244073
v 6.715191 -0.000000 -1.910844
v 4.715191 -0.000000 -1.910845
v 6.715191 0.308924 -3.244072
v 4.715191 0.308924 -3.244073
v 6.715191 0.308924 -2.025166
v 6.715191 0.194601 -1.910844
v 4.715191 0.194601 -1.910845
v 4.715191 0.308924 -2.025167
v 6.715191 -0.000000 -3.638495
v 4.715191 -0.000000 -3.638496
v 6.715191 0.308924 -3.638495
v 4.715191 0.308924 -3.638496
v 3.029090 -0.000000 -3.244073
v 3.029089 -0.000000 -1.910845
v 3.029090 0.308924 -3.244073
v 3.029089 0.308924 -2.025167
v 3.029089 0.194601 -1.910845
v 3.029090 -0.000000 -3.638496
v 3.029090 0.308924 -3.638496
v 2.920592 -0.000000 -3.244073
v 2.920592 -0.000000 -1.910845
v 2.920592 0.308924 -3.244073
v 2.920592 0.308924 -2.025167
v 2.920592 0.194601 -1.910845
v 2.920592 -0.000000 -3.638496
v 2.920592 0.308924 -3.638496
v 2.911084 -0.011754 -3.242808
v 2.911084 -0.011754 -1.909579
v 2.911084 0.297169 -3.242808
v 2.911084 0.297169 -2.023901
v 2.911084 0.182847 -1.909579
v 2.911084 -0.011754 -3.637230
v 2.911084 0.297169 -3.637230
v 8.546371 0.000000 3.240964
v 10.546371 0.000000 3.240964
v 8.546371 0.000000 1.907736
v 10.546371 0.000000 1.907736
v 8.546371 0.308924 3.240964
v 10.546371 0.308924 3.240964
v 8.546371 0.308924 2.022058
v 8.546371 0.194601 1.907736
v 10.546371 0.194601 1.907736
v 10.546371 0.308924 2.022058
v 8.546371 0.000000 3.635387
v 10.546371 0.000000 3.635387
v 8.546371 0.308924 3.635387
v 10.546371 0.308924 3.635387
v 6.860271 0.000000 1.907736
v 6.860271 0.000000 3.240964
v 6.860271 0.308924 3.240964
v 6.860271 0.194601 1.907736
v 6.860271 0.308924 2.022058
v 6.860271 0.308924 3.635387
v 6.860271 0.000000 3.635387
v 6.751773 0.000000 1.907736
v 6.751773 0.000000 3.240964
v 6.751773 0.308924 3.240964
v 6.751773 0.194601 1.907736
v 6.751773 0.308924 2.022058
v 6.751773 0.308924 3.635387
v 6.751773 0.000000 3.635387
v 6.742265 -0.011754 1.909001
v 6.742265 -0.011754 3.242229
v 6.742265 0.297169 3.242229
v 6.742265 0.182847 1.909001
v 6.742265 0.297169 2.023324
v 6.742265 0.297169 3.636652
v 6.742265 -0.011754 3.636652
v 6.731654 0.000000 1.915590
v 10.562835 0.000000 1.915590
v 6.731654 -0.000000 -1.915591
v 10.562835 -0.000000 -1.915591
v 10.546372 -0.000000 -3.244072
v 8.546371 -0.000000 -3.244073
v 10.546371 -0.000000 -1.910844
v 8.546371 -0.000000 -1.910845
v 10.546372 0.308924 -3.244072
v 8.546371 0.308924 -3.244073
v 10.546371 0.308924 -2.025166
v 10.546371 0.194601 -1.910844
v 8.546371 0.194601 -1.910845
v 8.546371 0.308924 -2.025167
v 10.546372 -0.000000 -3.638495
v 8.546371 -0.000000 -3.638496
v 10.546372 0.308924 -3.638495
v 8.546371 0.308924 -3.638496
v 6.860271 -0.000000 -3.244073
v 6.860270 -0.000000 -1.910845
v 6.860271 0.308924 -3.244073
v 6.860270 0.308924 -2.025167
v 6.860270 0.194601 -1.910845
v 6.860271 -0.000000 -3.638496
v 6.860271 0.308924 -3.638496
v 6.751773 -0.000000 -3.244073
v 6.751773 -0.000000 -1.910845
v 6.751773 0.308924 -3.244073
v 6.751773 0.308924 -2.025167
v 6.751773 0.194601 -1.910845
v 6.751773 -0.000000 -3.638496
v 6.751773 0.308924 -3.638496
v 6.742265 -0.011754 -3.242808
v 6.742265 -0.011754 -1.909579
v 6.742265 0.297169 -3.242808
v 6.742265 0.297169 -2.023901
v 6.742265 0.182847 -1.909579
v 6.742265 -0.011754 -3.637230
v 6.742265 0.297169 -3.637230
vn -0.0000 -1.0000 -0.0000
vn -0.0000 0.7071 -0.7071
vn -0.0000 -0.0000 -1.0000
vn -0.0000 1.0000 -0.0000
vn 1.0000 -0.0000 -0.0000
vn -0.0000 -0.0000 1.0000
vn 0.7775 -0.6289 -0.0000
vn -0.6957 0.5080 -0.5080
vn -1.0000 -0.0000 -0.0000
vn -0.7775 0.6288 -0.0000
vn 0.1320 -0.0000 0.9913
vn -0.1319 -0.0000 -0.9913
vn -0.0000 0.7071 0.7071
vn -0.6151 0.5575 0.5575
vn -0.1320 -0.0000 -0.9912
vn -0.6956 0.5080 -0.5080
vn -0.7775 0.6289 -0.0000
vn -0.6150 0.5576 0.5575
vn -0.1320 -0.0000 -0.9913
vn -0.6150 0.5575 0.5575
vn -0.1317 -0.0000 -0.9913
vt 0.904297 0.264951
vt 0.904297 1.005633
vt 2.015408 1.005633
vt 2.015408 0.264951
vt 2.015408 0.045827
vt 0.904297 0.045827
vt 0.904297 0.942121
vt 2.015408 0.942121
vt 0.904297 0.520356
vt 0.904297 0.412244
vt -0.032426 0.412244
vt -0.032426 0.520356
vt 2.015408 0.412244
vt 2.015408 0.520356
vt 0.264951 0.412244
vt 1.005633 0.412244
vt 1.005633 0.520356
vt 0.942121 0.583868
vt 0.264951 0.583868
vt 2.015408 0.583868
vt 0.904297 0.583868
vt -0.032426 0.264951
vt -0.032426 1.005633
vt 0.045827 0.583868
vt 0.045827 0.412244
vt -0.092702 0.412244
vt -0.092702 0.520356
vt -0.032426 0.583868
vt -0.092702 0.583868
vt -0.032426 0.045827
vt -0.032426 0.942121
vt 0.264248 0.405714
vt 1.004930 0.405714
vt 1.004930 0.513826
vt 0.941418 0.577338
vt -0.092702 0.045827
vt -0.092702 0.264951
vt -0.092702 0.942121
vt -0.092702 1.005633
vt 0.264248 0.577338
vt 0.045124 0.405714
vt 0.045124 0.577338
vt -0.097985 0.577338
vt -0.097985 0.405714
vt -0.097985 0.513826
vt -1.015408 0.264709
vt -1.015408 1.005391
vt 0.095703 1.005391
vt 0.095703 0.264709
vt 0.095703 0.045585
vt -1.015408 0.045585
vt -1.015408 0.941879
vt 0.095703 0.941879
vt 1.005391 0.412244
vt 0.264709 0.412244
vt 0.264709 0.583868
vt 0.941879 0.583868
vt 1.005391 0.520356
vt 0.095703 0.412244
vt -1.015408 0.412244
vt -1.015408 0.520356
vt 0.095703 0.520356
vt 1.032426 0.264709
vt 1.032426 0.045585
vt 0.095703 0.583868
vt -1.015408 0.583868
vt 0.045585 0.412244
vt 0.045585 0.583868
vt 1.032426 0.520356
vt 1.032426 0.412244
vt 1.032426 1.005392
vt 1.032426 0.941879
vt 1.092702 0.941879
vt 1.092702 1.005392
vt 1.092702 0.520356
vt 1.092702 0.412244
vt 1.032426 0.583868
vt 1.097985 0.513826
vt 1.097985 0.405714
vt 0.265412 0.405714
vt 0.046288 0.405714
vt 1.092702 0.264709
vt 1.092702 0.045585
vt 1.092702 0.583868
vt 1.006095 0.405714
vt 1.006095 0.513826
vt 0.942582 0.577338
vt 0.265412 0.577338
vt 0.046288 0.577338
vt 1.005392 0.520356
vt 1.005392 0.412244
vt 1.097985 0.577338
vt -0.457795 -0.457795
vt 1.457795 -0.457795
vt 1.457795 1.457795
vt -0.457795 1.457795
s 1
usemtl grey_stone_path
f 1/1/1 3/2/1 4/3/1 2/4/1
f 1/1/1 2/4/1 12/5/1 11/6/1
f 9/3/2 8/2/2 7/7/2 10/8/2
f 8/9/3 3/10/3 15/11/3 18/12/3
f 5/1/4 6/4/4 10/8/4 7/7/4
f 4/13/3 3/10/3 8/9/3 9/14/3
f 2/15/5 4/16/5 9/17/5 10/18/5 6/19/5
f 11/10/6 12/13/6 14/20/6 13/21/6
f 3/2/1 1/1/1 16/22/1 15/23/1
f 6/4/4 5/1/4 13/6/4 14/5/4
f 2/15/5 6/19/5 14/24/5 12/25/5
f 18/12/3 15/11/3 22/26/3 25/27/3
f 21/11/6 20/28/6 27/29/6 28/26/6
f 1/1/1 11/6/1 21/30/1 16/22/1
f 7/7/2 8/2/2 18/23/2 19/31/2
f 11/10/6 13/21/6 20/28/6 21/11/6
f 5/1/4 7/7/4 19/31/4 17/22/4
f 13/6/4 5/1/4 17/22/4 20/30/4
f 22/16/7 23/15/7 30/32/7 29/33/7
f 26/18/8 25/17/8 32/34/8 33/35/8
f 16/22/1 21/30/1 28/36/1 23/37/1
f 17/22/4 19/31/4 26/38/4 24/37/4
f 19/31/2 18/23/2 25/39/2 26/38/2
f 15/23/1 16/22/1 23/37/1 22/39/1
f 20/30/4 17/22/4 24/37/4 27/36/4
f 29/33/9 30/32/9 31/40/9 33/35/9 32/34/9
f 31/40/9 30/32/9 35/41/9 34/42/9
f 27/24/10 24/19/10 31/40/10 34/42/10
f 28/26/11 27/29/11 34/43/11 35/44/11
f 25/27/12 22/26/12 29/44/12 32/45/12
f 23/15/7 28/25/7 35/41/7 30/32/7
f 24/19/10 26/18/10 33/35/10 31/40/10
f 40/46/1 42/47/1 43/48/1 41/49/1
f 40/46/1 41/49/1 51/50/1 50/51/1
f 48/48/13 47/47/13 46/52/13 49/53/13
f 42/54/5 40/55/5 44/56/5 46/57/5 47/58/5
f 44/46/4 45/49/4 49/53/4 46/52/4
f 43/59/6 42/60/6 47/61/6 48/62/6
f 51/50/1 41/49/1 54/63/1 59/64/1
f 50/60/3 51/59/3 53/65/3 52/66/3
f 44/56/5 40/55/5 50/67/5 52/68/5
f 45/49/4 44/46/4 52/51/4 53/50/4
f 43/59/6 48/62/6 58/69/6 55/70/6
f 58/71/13 57/72/13 64/73/13 65/74/13
f 55/70/6 58/69/6 65/75/6 62/76/6
f 53/65/3 51/59/3 59/70/3 60/77/3
f 41/49/1 43/48/1 55/71/1 54/63/1
f 49/53/4 45/49/4 56/63/4 57/72/4
f 45/49/4 53/50/4 60/64/4 56/63/4
f 48/48/13 49/53/13 57/72/13 58/71/13
f 62/76/11 65/75/11 72/78/11 69/79/11
f 66/67/7 61/55/7 68/80/7 73/81/7
f 54/63/1 55/71/1 62/74/1 61/82/1
f 56/63/4 60/64/4 67/83/4 63/82/4
f 60/77/3 59/70/3 66/76/3 67/84/3
f 57/72/4 56/63/4 63/82/4 64/73/4
f 59/64/1 54/63/1 61/82/1 66/83/1
f 68/80/9 69/85/9 72/86/9 71/87/9 70/88/9
f 68/80/9 70/88/9 74/89/9 73/81/9
f 65/90/14 64/57/14 71/87/14 72/86/14
f 61/55/7 62/91/7 69/85/7 68/80/7
f 63/56/10 67/68/10 74/89/10 70/88/10
f 67/84/15 66/76/15 73/79/15 74/92/15
f 64/57/10 63/56/10 70/88/10 71/87/10
f 75/1/1 77/2/1 78/3/1 76/4/1
f 75/1/1 76/4/1 86/5/1 85/6/1
f 83/3/2 82/2/2 81/7/2 84/8/2
f 82/9/3 77/10/3 89/11/3 92/12/3
f 79/1/4 80/4/4 84/8/4 81/7/4
f 78/13/3 77/10/3 82/9/3 83/14/3
f 76/15/5 78/16/5 83/17/5 84/18/5 80/19/5
f 85/10/6 86/13/6 88/20/6 87/21/6
f 77/2/1 75/1/1 90/22/1 89/23/1
f 80/4/4 79/1/4 87/6/4 88/5/4
f 76/15/5 80/19/5 88/24/5 86/25/5
f 92/12/3 89/11/3 96/26/3 99/27/3
f 95/11/6 94/28/6 101/29/6 102/26/6
f 75/1/1 85/6/1 95/30/1 90/22/1
f 81/7/2 82/2/2 92/23/2 93/31/2
f 85/10/6 87/21/6 94/28/6 95/11/6
f 79/1/4 81/7/4 93/31/4 91/22/4
f 87/6/4 79/1/4 91/22/4 94/30/4
f 96/16/7 97/15/7 104/32/7 103/33/7
f 100/18/16 99/17/16 106/34/16 107/35/16
f 90/22/1 95/30/1 102/36/1 97/37/1
f 91/22/4 93/31/4 100/38/4 98/37/4
f 93/31/2 92/23/2 99/39/2 100/38/2
f 89/23/1 90/22/1 97/37/1 96/39/1
f 94/30/4 91/22/4 98/37/4 101/36/4
f 103/33/9 104/32/9 105/40/9 107/35/9 106/34/9
f 105/40/9 104/32/9 109/41/9 108/42/9
f 101/24/17 98/19/17 105/40/17 108/42/17
f 102/26/11 101/29/11 108/43/11 109/44/11
f 99/27/12 96/26/12 103/44/12 106/45/12
f 97/15/7 102/25/7 109/41/7 104/32/7
f 98/19/17 100/18/17 107/35/17 105/40/17
f 114/46/1 116/47/1 117/48/1 115/49/1
f 114/46/1 115/49/1 125/50/1 124/51/1
f 122/48/13 121/47/13 120/52/13 123/53/13
f 116/54/5 114/55/5 118/56/5 120/57/5 121/58/5
f 118/46/4 119/49/4 123/53/4 120/52/4
f 117/59/6 116/60/6 121/61/6 122/62/6
f 125/50/1 115/49/1 128/63/1 133/64/1
f 124/60/3 125/59/3 127/65/3 126/66/3
f 118/56/5 114/55/5 124/67/5 126/68/5
f 119/49/4 118/46/4 126/51/4 127/50/4
f 117/59/6 122/62/6 132/69/6 129/70/6
f 132/71/13 131/72/13 138/73/13 139/74/13
f 129/70/6 132/69/6 139/75/6 136/76/6
f 127/65/3 125/59/3 133/70/3 134/77/3
f 115/49/1 117/48/1 129/71/1 128/63/1
f 123/53/4 119/49/4 130/63/4 131/72/4
f 119/49/4 127/50/4 134/64/4 130/63/4
f 122/48/13 123/53/13 131/72/13 132/71/13
f 136/76/11 139/75/11 146/78/11 143/79/11
f 140/67/7 135/55/7 142/80/7 147/81/7
f 128/63/1 129/71/1 136/74/1 135/82/1
f 130/63/4 134/64/4 141/83/4 137/82/4
f 134/77/3 133/70/3 140/76/3 141/84/3
f 131/72/4 130/63/4 137/82/4 138/73/4
f 133/64/1 128/63/1 135/82/1 140/83/1
f 142/80/9 143/85/9 146/86/9 145/87/9 144/88/9
f 142/80/9 144/88/9 148/89/9 147/81/9
f 139/90/18 138/57/18 145/87/18 146/86/18
f 135/55/7 136/91/7 143/85/7 142/80/7
f 137/56/17 141/68/17 148/89/17 144/88/17
f 141/84/19 140/76/19 147/79/19 148/92/19
f 138/57/17 137/56/17 144/88/17 145/87/17
f 149/1/1 151/2/1 152/3/1 150/4/1
f 149/1/1 150/4/1 160/5/1 159/6/1
f 157/3/2 156/2/2 155/7/2 158/8/2
f 156/9/3 151/10/3 163/11/3 166/12/3
f 153/1/4 154/4/4 158/8/4 155/7/4
f 152/13/3 151/10/3 156/9/3 157/14/3
f 150/15/5 152/16/5 157/17/5 158/18/5 154/19/5
f 159/10/6 160/13/6 162/20/6 161/21/6
f 151/2/1 149/1/1 164/22/1 163/23/1
f 154/4/4 153/1/4 161/6/4 162/5/4
f 150/15/5 154/19/5 162/24/5 160/25/5
f 166/12/3 163/11/3 170/26/3 173/27/3
f 169/11/6 168/28/6 175/29/6 176/26/6
f 149/1/1 159/6/1 169/30/1 164/22/1
f 155/7/2 156/2/2 166/23/2 167/31/2
f 159/10/6 161/21/6 168/28/6 169/11/6
f 153/1/4 155/7/4 167/31/4 165/22/4
f 161/6/4 153/1/4 165/22/4 168/30/4
f 170/16/7 171/15/7 178/32/7 177/33/7
f 174/18/16 173/17/16 180/34/16 181/35/16
f 164/22/1 169/30/1 176/36/1 171/37/1
f 165/22/4 167/31/4 174/38/4 172/37/4
f 167/31/2 166/23/2 173/39/2 174/38/2
f 163/23/1 164/22/1 171/37/1 170/39/1
f 168/30/4 165/22/4 172/37/4 175/36/4
f 177/33/9 178/32/9 179/40/9 181/35/9 180/34/9
f 179/40/9 178/32/9 183/41/9 182/42/9
f 175/24/17 172/19/17 179/40/17 182/42/17
f 176/26/11 175/29/11 182/43/11 183/44/11
f 173/27/12 170/26/12 177/44/12 180/45/12
f 171/15/7 176/25/7 183/41/7 178/32/7
f 172/19/17 174/18/17 181/35/17 179/40/17
f 188/46/1 190/47/1 191/48/1 189/49/1
f 188/46/1 189/49/1 199/50/1 198/51/1
f 196/48/13 195/47/13 194/52/13 197/53/13
f 190/54/5 188/55/5 192/56/5 194/57/5 195/58/5
f 192/46/4 193/49/4 197/53/4 194/52/4
f 191/59/6 190/60/6 195/61/6 196/62/6
f 199/50/1 189/49/1 202/63/1 207/64/1
f 198/60/3 199/59/3 201/65/3 200/66/3
f 192/56/5 188/55/5 198/67/5 200/68/5
f 193/49/4 192/46/4 200/51/4 201/50/4
f 191/59/6 196/62/6 206/69/6 203/70/6
f 206/71/13 205/72/13 212/73/13 213/74/13
f 203/70/6 206/69/6 213/75/6 210/76/6
f 201/65/3 199/59/3 207/70/3 208/77/3
f 189/49/1 191/48/1 203/71/1 202/63/1
f 197/53/4 193/49/4 204/63/4 205/72/4
f 193/49/4 201/50/4 208/64/4 204/63/4
f 196/48/13 197/53/13 205/72/13 206/71/13
f 210/76/11 213/75/11 220/78/11 217/79/11
f 214/67/7 209/55/7 216/80/7 221/81/7
f 202/63/1 203/71/1 210/74/1 209/82/1
f 204/63/4 208/64/4 215/83/4 211/82/4
f 208/77/3 207/70/3 214/76/3 215/84/3
f 205/72/4 204/63/4 211/82/4 212/73/4
f 207/64/1 202/63/1 209/82/1 214/83/1
f 216/80/9 217/85/9 220/86/9 219/87/9 218/88/9
f 216/80/9 218/88/9 222/89/9 221/81/9
f 213/90/20 212/57/20 219/87/20 220/86/20
f 209/55/7 210/91/7 217/85/7 216/80/7
f 211/56/17 215/68/17 222/89/17 218/88/17
f 215/84/19 214/76/19 221/79/19 222/92/19
f 212/57/17 211/56/17 218/88/17 219/87/17
f 223/1/1 225/2/1 226/3/1 224/4/1
f 223/1/1 224/4/1 234/5/1 233/6/1
f 231/3/2 230/2/2 229/7/2 232/8/2
f 230/9/3 225/10/3 237/11/3 240/12/3
f 227/1/4 228/4/4 232/8/4 229/7/4
f 226/13/3 225/10/3 230/9/3 231/14/3
f 224/15/5 226/16/5 231/17/5 232/18/5 228/19/5
f 233/10/6 234/13/6 236/20/6 235/21/6
f 225/2/1 223/1/1 238/22/1 237/23/1
f 228/4/4 227/1/4 235/6/4 236/5/4
f 224/15/5 228/19/5 236/24/5 234/25/5
f 240/12/3 237/11/3 244/26/3 247/27/3
f 243/11/6 242/28/6 249/29/6 250/26/6
f 223/1/1 233/6/1 243/30/1 238/22/1
f 229/7/2 230/2/2 240/23/2 241/31/2
f 233/10/6 235/21/6 242/28/6 243/11/6
f 227/1/4 229/7/4 241/31/4 239/22/4
f 235/6/4 227/1/4 239/22/4 242/30/4
f 244/16/7 245/15/7 252/32/7 251/33/7
f 248/18/16 247/17/16 254/34/16 255/35/16
f 238/22/1 243/30/1 250/36/1 245/37/1
f 239/22/4 241/31/4 248/38/4 246/37/4
f 241/31/2 240/23/2 247/39/2 248/38/2
f 237/23/1 238/22/1 245/37/1 244/39/1
f 242/30/4 239/22/4 246/37/4 249/36/4
f 251/33/9 252/32/9 253/40/9 255/35/9 254/34/9
f 253/40/9 252/32/9 257/41/9 256/42/9
f 249/24/17 246/19/17 253/40/17 256/42/17
f 250/26/11 249/29/11 256/43/11 257/44/11
f 247/27/12 244/26/12 251/44/12 254/45/12
f 245/15/7 250/25/7 257/41/7 252/32/7
f 246/19/17 248/18/17 255/35/17 253/40/17
f 262/46/1 264/47/1 265/48/1 263/49/1
f 262/46/1 263/49/1 273/50/1 272/51/1
f 270/48/13 269/47/13 268/52/13 271/53/13
f 264/54/5 262/55/5 266/56/5 268/57/5 269/58/5
f 266/46/4 267/49/4 271/53/4 268/52/4
f 265/59/6 264/60/6 269/61/6 270/62/6
f 273/50/1 263/49/1 276/63/1 281/64/1
f 272/60/3 273/59/3 275/65/3 274/66/3
f 266/56/5 262/55/5 272/67/5 274/68/5
f 267/49/4 266/46/4 274/51/4 275/50/4
f 265/59/6 270/62/6 280/69/6 277/70/6
f 280/71/13 279/72/13 286/73/13 287/74/13
f 277/70/6 280/69/6 287/75/6 284/76/6
f 275/65/3 273/59/3 281/70/3 282/77/3
f 263/49/1 265/48/1 277/71/1 276/63/1
f 271/53/4 267/49/4 278/63/4 279/72/4
f 267/49/4 275/50/4 282/64/4 278/63/4
f 270/48/13 271/53/13 279/72/13 280/71/13
f 284/76/11 287/75/11 294/78/11 291/79/11
f 288/67/7 283/55/7 290/80/7 295/81/7
f 276/63/1 277/71/1 284/74/1 283/82/1
f 278/63/4 282/64/4 289/83/4 285/82/4
f 282/77/3 281/70/3 288/76/3 289/84/3
f 279/72/4 278/63/4 285/82/4 286/73/4
f 281/64/1 276/63/1 283/82/1 288/83/1
f 290/80/9 291/85/9 294/86/9 293/87/9 292/88/9
f 290/80/9 292/88/9 296/89/9 295/81/9
f 287/90/18 286/57/18 293/87/18 294/86/18
f 283/55/7 284/91/7 291/85/7 290/80/7
f 285/56/17 289/68/17 296/89/17 292/88/17
f 289/84/19 288/76/19 295/79/19 296/92/19
f 286/57/17 285/56/17 292/88/17 293/87/17
f 297/1/1 299/2/1 300/3/1 298/4/1
f 297/1/1 298/4/1 308/5/1 307/6/1
f 305/3/2 304/2/2 303/7/2 306/8/2
f 304/9/3 299/10/3 311/11/3 314/12/3
f 301/1/4 302/4/4 306/8/4 303/7/4
f 300/13/3 299/10/3 304/9/3 305/14/3
f 298/15/5 300/16/5 305/17/5 306/18/5 302/19/5
f 307/10/6 308/13/6 310/20/6 309/21/6
f 299/2/1 297/1/1 312/22/1 311/23/1
f 302/4/4 301/1/4 309/6/4 310/5/4
f 298/15/5 302/19/5 310/24/5 308/25/5
f 314/12/3 311/11/3 318/26/3 321/27/3
f 317/11/6 316/28/6 323/29/6 324/26/6
f 297/1/1 307/6/1 317/30/1 312/22/1
f 303/7/2 304/2/2 314/23/2 315/31/2
f 307/10/6 309/21/6 316/28/6 317/11/6
f 301/1/4 303/7/4 315/31/4 313/22/4
f 309/6/4 301/1/4 313/22/4 316/30/4
f 318/16/7 319/15/7 326/32/7 325/33/7
f 322/18/16 321/17/16 328/34/16 329/35/16
f 312/22/1 317/30/1 324/36/1 319/37/1
f 313/22/4 315/31/4 322/38/4 320/37/4
f 315/31/2 314/23/2 321/39/2 322/38/2
f 311/23/1 312/22/1 319/37/1 318/39/1
f 316/30/4 313/22/4 320/37/4 323/36/4
f 325/33/9 326/32/9 327/40/9 329/35/9 328/34/9
f 327/40/9 326/32/9 331/41/9 330/42/9
f 323/24/10 320/19/17 327/40/17 330/42/10
f 324/26/11 323/29/11 330/43/11 331/44/11
f 321/27/12 318/26/12 325/44/12 328/45/12
f 319/15/7 324/25/7 331/41/7 326/32/7
f 320/19/17 322/18/17 329/35/17 327/40/17
f 336/46/1 338/47/1 339/48/1 337/49/1
f 336/46/1 337/49/1 347/50/1 346/51/1
f 344/48/13 343/47/13 342/52/13 345/53/13
f 338/54/5 336/55/5 340/56/5 342/57/5 343/58/5
f 340/46/4 341/49/4 345/53/4 342/52/4
f 339/59/6 338/60/6 343/61/6 344/62/6
f 347/50/1 337/49/1 350/63/1 355/64/1
f 346/60/3 347/59/3 349/65/3 348/66/3
f 340/56/5 336/55/5 346/67/5 348/68/5
f 341/49/4 340/46/4 348/51/4 349/50/4
f 339/59/6 344/62/6 354/69/6 351/70/6
f 354/71/13 353/72/13 360/73/13 361/74/13
f 351/70/6 354/69/6 361/75/6 358/76/6
f 349/65/3 347/59/3 355/70/3 356/77/3
f 337/49/1 339/48/1 351/71/1 350/63/1
f 345/53/4 341/49/4 352/63/4 353/72/4
f 341/49/4 349/50/4 356/64/4 352/63/4
f 344/48/13 345/53/13 353/72/13 354/71/13
f 358/76/11 361/75/11 368/78/11 365/79/11
f 362/67/7 357/55/7 364/80/7 369/81/7
f 350/63/1 351/71/1 358/74/1 357/82/1
f 352/63/4 356/64/4 363/83/4 359/82/4
f 356/77/3 355/70/3 362/76/3 363/84/3
f 353/72/4 352/63/4 359/82/4 360/73/4
f 355/64/1 350/63/1 357/82/1 362/83/1
f 364/80/9 365/85/9 368/86/9 367/87/9 366/88/9
f 364/80/9 366/88/9 370/89/9 369/81/9
f 361/90/14 360/57/14 367/87/14 368/86/14
f 357/55/7 358/91/7 365/85/7 364/80/7
f 359/56/17 363/68/10 370/89/10 366/88/17
f 363/84/21 362/76/21 369/79/21 370/92/21
f 360/57/17 359/56/17 366/88/17 367/87/17
usemtl 8K_Brand_new_road
f 36/93/4 37/94/4 39/95/4 38/96/4
f 110/93/4 111/94/4 113/95/4 112/96/4
f 184/93/4 185/94/4 187/95/4 186/96/4
f 258/93/4 259/94/4 261/95/4 260/96/4
f 332/93/4 333/94/4 335/95/4 334/96/4
